<?xml version="1.0" encoding="UTF-8" standalone="no"?>
<svg
   xmlns:dc="http://purl.org/dc/elements/1.1/"
   xmlns:cc="http://creativecommons.org/ns#"
   xmlns:rdf="http://www.w3.org/1999/02/22-rdf-syntax-ns#"
   xmlns:svg="http://www.w3.org/2000/svg"
   xmlns="http://www.w3.org/2000/svg"
   xmlns:sodipodi="http://sodipodi.sourceforge.net/DTD/sodipodi-0.dtd"
   xmlns:inkscape="http://www.inkscape.org/namespaces/inkscape"
   version="1.1"
   baseProfile="basic"
   id="svg97"
   x="0px"
   y="0px"
   width="48px"
   height="48px"
   viewBox="0 0 48 48"
   xml:space="preserve"
   sodipodi:version="0.32"
   inkscape:version="0.46"
   sodipodi:docname="basic11dftpd.svg"
   inkscape:output_extension="org.inkscape.output.svg.inkscape"><metadata
   id="metadata128"><rdf:RDF><cc:Work
       rdf:about=""><dc:format>image/svg+xml</dc:format><dc:type
         rdf:resource="http://purl.org/dc/dcmitype/StillImage" /></cc:Work></rdf:RDF></metadata><defs
   id="defs126"><inkscape:perspective
     sodipodi:type="inkscape:persp3d"
     inkscape:vp_x="0 : 24 : 1"
     inkscape:vp_y="0 : 1000 : 0"
     inkscape:vp_z="48 : 24 : 1"
     inkscape:persp3d-origin="24 : 16 : 1"
     id="perspective130" /></defs><sodipodi:namedview
   inkscape:window-height="973"
   inkscape:window-width="1280"
   inkscape:pageshadow="2"
   inkscape:pageopacity="0.0"
   guidetolerance="10.0"
   gridtolerance="10.0"
   objecttolerance="10.0"
   borderopacity="1.0"
   bordercolor="#666666"
   pagecolor="#ffffff"
   id="base"
   showgrid="false"
   inkscape:zoom="8"
   inkscape:cx="19.03262"
   inkscape:cy="33.468334"
   inkscape:window-x="-4"
   inkscape:window-y="-4"
   inkscape:current-layer="svg97" />
<g
   id="layer1"
   transform="translate(0.75,1)">
	
		<linearGradient
   id="rect69_1_"
   gradientUnits="userSpaceOnUse"
   x1="-172.6953"
   y1="-762.36432"
   x2="-158.99451"
   y2="-762.36432"
   gradientTransform="matrix(2.7402,0,0,-0.3649,478.1296,-235.8104)">
		<stop
   offset="0"
   style="stop-color:#686868"
   id="stop5" />
		<stop
   offset="0.23"
   style="stop-color:#686868"
   id="stop7" />
		<stop
   offset="0.78"
   style="stop-color:#686868"
   id="stop9" />
		<stop
   offset="1"
   style="stop-color:#686868"
   id="stop11" />
	</linearGradient>
	<rect
   id="rect69"
   x="5.4169998"
   y="40.408001"
   width="36.542"
   height="4"
   style="fill:url(#rect69_1_)" />
	
		<linearGradient
   id="rect255_1_"
   gradientUnits="userSpaceOnUse"
   x1="-240.2881"
   y1="-1724.6494"
   x2="-235.8145"
   y2="-1724.6494"
   gradientTransform="matrix(8.1686,0,0,-0.2212,1968.2327,-337.0745)">
		<stop
   offset="0"
   style="stop-color:#474747"
   id="stop15" />
		<stop
   offset="0.1"
   style="stop-color:#474747"
   id="stop17" />
		<stop
   offset="0.9"
   style="stop-color:#474747"
   id="stop19" />
		<stop
   offset="1"
   style="stop-color:#474747"
   id="stop21" />
	</linearGradient>
	<rect
   id="rect255"
   x="5.4169998"
   y="43.939999"
   width="36.542"
   height="0.98900002"
   style="fill:url(#rect255_1_)" />
	
		<linearGradient
   id="rect250_1_"
   gradientUnits="userSpaceOnUse"
   x1="-240.2881"
   y1="-1630.9893"
   x2="-235.8145"
   y2="-1630.9893"
   gradientTransform="matrix(8.1686,0,0,-0.2286,1968.2327,-332.4818)">
		<stop
   offset="0"
   style="stop-color:#474747"
   id="stop25" />
		<stop
   offset="0.1"
   style="stop-color:#474747"
   id="stop27" />
		<stop
   offset="0.9"
   style="stop-color:#474747"
   id="stop29" />
		<stop
   offset="1"
   style="stop-color:#474747"
   id="stop31" />
	</linearGradient>
	<rect
   id="rect250"
   x="5.4169998"
   y="39.884998"
   width="36.542"
   height="1.023"
   style="fill:url(#rect250_1_)" />
	
		<linearGradient
   id="rect176_1_"
   gradientUnits="userSpaceOnUse"
   x1="-172.6953"
   y1="-2364.2671"
   x2="-158.99451"
   y2="-2364.2671"
   gradientTransform="matrix(2.7402,0,0,-0.1477,478.1296,-307.1714)">
		<stop
   offset="0"
   style="stop-color:#FFFFFF"
   id="stop35" />
		<stop
   offset="0.1"
   style="stop-color:#FFFFFF"
   id="stop37" />
		<stop
   offset="0.92"
   style="stop-color:#FFFFFF"
   id="stop39" />
		<stop
   offset="1"
   style="stop-color:#FFFFFF"
   id="stop41" />
	</linearGradient>
	<rect
   id="rect176"
   x="5.4169998"
   y="41.186001"
   width="36.542"
   height="1.619"
   style="fill:#ffffff;fill-opacity:0.72156863" />
	
		<linearGradient
   id="rect183_1_"
   gradientUnits="userSpaceOnUse"
   x1="27.9531"
   y1="15.1343"
   x2="27.9531"
   y2="9.5157003"
   gradientTransform="matrix(0.9838,0,0,-1.0165,-3.9918,54.7188)">
		<stop
   offset="0"
   style="stop-color:#7A7A7A"
   id="stop45" />
		<stop
   offset="0.19"
   style="stop-color:#C5C5C5"
   id="stop47" />
		<stop
   offset="0.6"
   style="stop-color:#626262"
   id="stop49" />
		<stop
   offset="1"
   style="stop-color:#888888"
   id="stop51" />
	</linearGradient>
	<path
   id="rect183"
   d="M 21.883,29.877 C 21.099,29.877 20.477,30.5 20.477,31.283 L 20.477,38.877 L 17.414,38.877 C 16.63,38.877 16.008,39.5 16.008,40.283 L 16.008,44.002 C 16.008,44.785 16.631,45.408 17.414,45.408 L 29.602,45.408 C 30.385,45.408 31.008,44.785 31.008,44.002 L 31.008,40.283 C 31.008,39.5 30.385,38.877 29.602,38.877 L 27.008,38.877 L 27.008,31.283 C 27.008,30.5 26.385,29.877 25.602,29.877 L 21.883,29.877 z"
   style="fill:url(#rect183_1_);stroke:#434343" />
	
		<linearGradient
   id="rect209_1_"
   gradientUnits="userSpaceOnUse"
   x1="2.9066999"
   y1="192.72459"
   x2="4.6387"
   y2="192.72459"
   gradientTransform="matrix(1.1387,0,0,-1.7321,18.107,371.2175)">
		<stop
   offset="0"
   style="stop-color:#FFFFFF"
   id="stop55" />
		<stop
   offset="1"
   style="stop-color:#FFFFFF"
   id="stop57" />
	</linearGradient>
	<path
   id="rect209"
   d="M 21.716,35.908 L 23.089,35.908 C 23.255,35.908 23.389,36.042 23.389,36.207 L 23.389,38.608 C 23.389,38.773 23.255,38.908 23.089,38.908 L 21.716,38.908 C 21.55,38.908 21.417,38.773 21.417,38.608 L 21.417,36.207 C 21.417,36.042 21.551,35.908 21.716,35.908 z"
   style="fill:#ffffff;fill-opacity:0.72156863" />
	
		<linearGradient
   id="path258_1_"
   gradientUnits="userSpaceOnUse"
   x1="92.694298"
   y1="92.237297"
   x2="92.845398"
   y2="90.689796"
   gradientTransform="matrix(0.8108,0,0,-1.2333,-68.286017,151.75499)">
		<stop
   offset="0"
   style="stop-color:#000000"
   id="stop61" />
		<stop
   offset="1"
   style="stop-color:#000000"
   id="stop63" />
	</linearGradient>
	
	<g
   id="g236"
   transform="translate(-0.610968,0.736037)">
		<path
   id="rect226"
   d="M 20.5,40 L 29.5,40 C 29.776,40 30,40.224 30,40.5 L 30,40.5 C 30,40.775 29.776,41 29.5,41 L 20.5,41 C 20.224,41 20,40.775 20,40.5 L 20,40.5 C 20,40.224 20.224,40 20.5,40 z"
   style="fill:#ffffff;fill-opacity:0.7202" />
		<path
   id="path235"
   d="M 19.063,40.532 C 19.063,40.825 18.825,41.063 18.532,41.063 C 18.239,41.063 18,40.825 18,40.532 C 18,40.239 18.238,40 18.531,40 C 18.824,40 19.063,40.239 19.063,40.532 z"
   style="fill:#ffffff;fill-opacity:0.7202" />
	</g>
	<g
   id="g17906"
   transform="translate(1.237435,-4.090477)">
		
			<radialGradient
   id="path17951_1_"
   cx="-34.168098"
   cy="14.9552"
   r="30.9039"
   gradientTransform="matrix(1.0532,0,-0.1069,-1.0211,63.0264,55.2888)"
   gradientUnits="userSpaceOnUse">
			<stop
   offset="0"
   style="stop-color:#202020"
   id="stop71" />
			<stop
   offset="1"
   style="stop-color:#B9B9B9"
   id="stop73" />
		</radialGradient>
		<linearGradient
   id="path17951_2_"
   gradientUnits="userSpaceOnUse"
   x1="-257.1246"
   y1="417.112"
   x2="-260.22241"
   y2="442.2995">
			<stop
   offset="0"
   style="stop-color:#424242"
   id="stop76" />
			<stop
   offset="1"
   style="stop-color:#777777"
   id="stop78" />
		</linearGradient>
		<path
   id="path17951"
   d="M 4.522,38.688 C 4.544,39.104 4.982,39.52 5.398,39.52 L 36.726,39.52 C 37.142,39.52 37.537,39.104 37.515,38.688 L 36.577,11.46 C 36.556,11.044 36.118,10.627 35.702,10.627 L 22.431,10.627 C 21.946,10.627 21.197,10.312 21.029,9.521 L 20.418,6.628 C 20.263,5.892 19.536,5.59 19.12,5.59 L 4.34,5.59 C 3.923,5.59 3.529,6.007 3.551,6.423 L 4.522,38.688 z"
   style="fill:url(#path17951_1_);stroke:url(#path17951_2_);stroke-linecap:round;stroke-linejoin:round" />
		
			<path
   id="path9784"
   d="M 5.042,18.563 L 35.489,18.563"
   style="opacity:0.11360001;fill:#729fcf;stroke:#000000;stroke-width:1;stroke-linecap:round;stroke-linejoin:round" />
		<path
   id="path9778"
   d="M 4.981,12.563 L 35.488,12.563"
   style="opacity:0.11360001;fill:#729fcf;stroke:#000000;stroke-linecap:round;stroke-linejoin:round" />
		
			<path
   id="path9788"
   d="M 5.226,22.563 L 35.492,22.563"
   style="opacity:0.11360001;fill:#729fcf;stroke:#000000;stroke-width:1;stroke-linecap:round;stroke-linejoin:round" />
		
			<path
   id="path9798"
   d="M 5.386,32.563 L 35.495,32.563"
   style="opacity:0.11360001;fill:#729fcf;stroke:#000000;stroke-width:1;stroke-linecap:round;stroke-linejoin:round" />
		
			<path
   id="path9800"
   d="M 5.509,34.563 L 35.497,34.563"
   style="opacity:0.11360001;fill:#729fcf;stroke:#000000;stroke-width:1;stroke-linecap:round;stroke-linejoin:round" />
		
			<radialGradient
   id="path9804_1_"
   cx="47.787998"
   cy="-1214.9154"
   r="19.136"
   gradientTransform="matrix(0.9174,0,0,-0.245,-21.5219,-258.3121)"
   gradientUnits="userSpaceOnUse">
			<stop
   offset="0"
   style="stop-color:#000000"
   id="stop87" />
			<stop
   offset="1"
   style="stop-color:#000000"
   id="stop89" />
		</radialGradient>
		
		
			<path
   id="path9782"
   d="M 5.042,16.563 L 35.489,16.563"
   style="opacity:0.11360001;fill:#729fcf;stroke:#000000;stroke-width:1;stroke-linecap:round;stroke-linejoin:round" />
		
			<path
   id="path9786"
   d="M 5.196,20.563 L 35.491,20.563"
   style="opacity:0.11360001;fill:#729fcf;stroke:#000000;stroke-width:1;stroke-linecap:round;stroke-linejoin:round" />
		
			<path
   id="path9780"
   d="M 5.012,14.563 L 35.49,14.563"
   style="opacity:0.11360001;fill:#729fcf;stroke:#000000;stroke-width:1;stroke-linecap:round;stroke-linejoin:round" />
		<g
   id="g17962"
   transform="matrix(1.040764,0,5.449252e-2,1.040764,-8.670199,2.670594)">
			<path
   id="path17964"
   d="M 42.424,8.388 C 42.429,8.291 42.296,8.141 42.189,8.141 L 28.966,8.138 C 28.966,8.138 30.062,8.853 31.352,8.862 L 42.405,8.933 C 42.417,8.722 42.416,8.55 42.424,8.388 z"
   style="fill:#ffffff;fill-opacity:0.50849998" />
		</g>
		
			<path
   id="path9790"
   d="M 5.226,24.563 L 35.492,24.563"
   style="opacity:0.11360001;fill:#729fcf;stroke:#000000;stroke-width:1;stroke-linecap:round;stroke-linejoin:round" />
		
			<path
   id="path9796"
   d="M 5.325,30.563 L 35.494,30.563"
   style="opacity:0.11360001;fill:#729fcf;stroke:#000000;stroke-width:1;stroke-linecap:round;stroke-linejoin:round" />
		
			<path
   id="path9794"
   d="M 5.325,28.563 L 35.494,28.563"
   style="opacity:0.11360001;fill:#729fcf;stroke:#000000;stroke-width:1;stroke-linecap:round;stroke-linejoin:round" />
		
			<path
   id="path9802"
   d="M 5.509,36.563 L 35.497,36.563"
   style="opacity:0.11360001;fill:#729fcf;stroke:#000000;stroke-width:1;stroke-linecap:round;stroke-linejoin:round" />
		
			<linearGradient
   id="path17970_1_"
   gradientUnits="userSpaceOnUse"
   x1="-87.691101"
   y1="-125.7508"
   x2="-84.022797"
   y2="-178.81129"
   gradientTransform="matrix(1.5168,0,0,-0.709,142.9085,-84.6712)">
			<stop
   offset="0"
   style="stop-color:#FFFFFF"
   id="stop102" />
			<stop
   offset="1"
   style="stop-color:#FFFFFE"
   id="stop104" />
		</linearGradient>
		<path
   id="path17970"
   d="M 6.068,38.864 C 6.085,39.177 5.887,39.385 5.569,39.28 L 5.569,39.28 C 5.252,39.176 5.032,38.967 5.016,38.656 L 4.069,6.591 C 4.053,6.279 4.234,6.09 4.546,6.09 L 18.968,6.043 C 19.28,6.043 19.9,6.343 20.101,7.365 L 20.674,10.18 C 20.247,9.715 20.255,9.7 20.037,9.023 L 19.631,7.764 C 19.412,7.036 18.933,6.932 18.621,6.932 L 5.733,6.932 C 5.421,6.932 5.224,7.14 5.24,7.453 L 6.178,38.967 L 6.068,38.864 z"
   style="opacity:0.45140004;fill:url(#path17970_1_)" />
		<path
   id="path9792"
   d="M 5.288,26.563 L 35.493,26.563"
   style="opacity:0.11360001;fill:#729fcf;stroke:#000000;stroke-linecap:round;stroke-linejoin:round" />
		
			<linearGradient
   id="path17973_1_"
   gradientUnits="userSpaceOnUse"
   x1="23.3036"
   y1="14.151"
   x2="23.1929"
   y2="19.0884"
   gradientTransform="matrix(1,0,0,-1,1.2749,51.0853)">
			<stop
   offset="0"
   style="stop-color:#6194CB"
   id="stop109" />
			<stop
   offset="1"
   style="stop-color:#729FCF"
   id="stop111" />
		</linearGradient>
		<path
   id="path17973"
   d="M 39.784,39.51 C 40.928,39.466 41.747,38.414 41.831,37.19 C 42.622,25.641 43.49,15.958 43.49,15.958 C 43.561,15.71 43.322,15.463 43.01,15.463 L 8.639,15.463 L 6.788,37.33 C 6.673,38.311 6.322,39.135 5.238,39.514 L 39.784,39.51 z"
   style="fill:url(#path17973_1_);stroke:#3465a4;stroke-linejoin:round" />
		<linearGradient
   id="path17975_1_"
   gradientUnits="userSpaceOnUse"
   x1="-262.70181"
   y1="415.91281"
   x2="-262.8837"
   y2="401.79059">
			<stop
   offset="0"
   style="stop-color:#FFFFFF"
   id="stop115" />
			<stop
   offset="1"
   style="stop-color:#FFFFFF"
   id="stop117" />
		</linearGradient>
		<path
   id="path17975"
   d="M 9.62,16.464 L 42.411,16.529 L 40.837,36.531 C 40.753,37.602 40.387,37.96 38.965,37.96 C 37.093,37.96 10.287,37.927 7.57,37.927 C 7.804,37.607 7.904,36.939 7.905,36.923 L 9.62,16.464 z"
   style="opacity:0.46590002;fill:none;stroke:url(#path17975_1_);stroke-width:1;stroke-linecap:round" />
		<path
   id="path17977"
   d="M 9.62,16.223 L 8.453,31.866 C 8.453,31.866 16.749,27.719 27.12,27.719 C 37.491,27.719 42.675,16.224 42.675,16.224 L 9.62,16.224 L 9.62,16.223 z"
   style="fill:#ffffff;fill-opacity:0.0893" />
		
			<path
   id="path9774"
   d="M 4.874,8.563 L 19.658,8.563"
   style="opacity:0.11360001;fill:#729fcf;stroke:#000000;stroke-width:1;stroke-linecap:round;stroke-linejoin:round" />
		
			<path
   id="path9776"
   d="M 4.922,10.563 L 20.203,10.563"
   style="opacity:0.11360001;fill:#729fcf;stroke:#000000;stroke-width:1;stroke-linecap:round;stroke-linejoin:round" />
		<g
   id="g17982"
   transform="matrix(1.040764,0,5.449252e-2,1.365642,-8.358528,0.921788)"
   style="opacity:0.41480001">
		</g>
	</g>
</g>
<g
   id="layer2">
</g>
</svg>
